<svg viewBox="0 0 24 47" fill="none" xmlns="http://www.w3.org/2000/svg" className="svg-icon">
<path d="M24.0013 2.14966C23.5733 2.38036 23.284 3.21273 22.7053 4.87753L18.8797 15.8835C18.715 16.3573 18.6326 16.5942 18.4842 16.7707C18.3531 16.9265 18.1859 17.048 17.9972 17.1245C17.7835 17.2111 17.5328 17.2162 17.0313 17.2264L5.38175 17.4638C3.61962 17.4998 2.73855 17.5177 2.38695 17.8533C2.08262 18.1438 1.94482 18.5679 2.0203 18.9818C2.10747 19.46 2.80972 19.9923 4.21422 21.0573L13.4993 28.0965C13.8991 28.3998 14.0989 28.5513 14.2208 28.7468C14.3286 28.9198 14.3924 29.1163 14.4069 29.3193C14.4232 29.5493 14.3506 29.7893 14.2053 30.2695L10.8312 41.4223C10.3208 43.1093 10.0656 43.9528 10.2762 44.3908C10.4584 44.77 10.8192 45.032 11.2361 45.0883C11.7178 45.153 12.4412 44.6498 13.8879 43.643L23.452 36.9878C23.8638 36.7013 24.0698 36.558 24.2935 36.5023C24.491 36.4533 24.6978 36.4533 24.8955 36.5023C25.1193 36.558 25.325 36.7013 25.7368 36.9878" stroke="black" fill="black" stroke-width="3" stroke-linecap="round" stroke-linejoin="round"/>
</svg>
