<svg  viewBox="0 0 49 47" fill="none" xmlns="http://www.w3.org/2000/svg" className="svg-icon">
<path d="M22.7053 4.87763C23.284 3.21283 23.5733 2.38046 24.0013 2.14976C24.3715 1.95008 24.8173 1.95008 25.1878 2.14976C25.6155 2.38046 25.9048 3.21283 26.4835 4.87763L30.3093 15.8836C30.474 16.3574 30.5563 16.5943 30.7048 16.7708C30.8358 16.9266 31.003 17.0481 31.1918 17.1246C31.4053 17.2112 31.656 17.2163 32.1575 17.2265L43.807 17.4639C45.5693 17.4998 46.4503 17.5178 46.802 17.8534C47.1063 18.1439 47.244 18.568 47.1685 18.9819C47.0815 19.4601 46.3793 19.9924 44.9748 21.0574L35.6895 28.0966C35.2898 28.3999 35.09 28.5514 34.968 28.7469C34.8603 28.9199 34.7965 29.1164 34.782 29.3194C34.7658 29.5494 34.8383 29.7894 34.9835 30.2696L38.3578 41.4224C38.868 43.1094 39.1233 43.9529 38.9128 44.3909C38.7305 44.7701 38.3698 45.0321 37.9528 45.0884C37.471 45.1531 36.7478 44.6499 35.301 43.6431L25.7368 36.9879C25.325 36.7014 25.1193 36.5581 24.8955 36.5024C24.6978 36.4534 24.491 36.4534 24.2935 36.5024C24.0698 36.5581 23.8638 36.7014 23.452 36.9879L13.8879 43.6431C12.4412 44.6499 11.7178 45.1531 11.2361 45.0884C10.8192 45.0321 10.4584 44.7701 10.2762 44.3909C10.0656 43.9529 10.3208 43.1094 10.8312 41.4224L14.2053 30.2696C14.3506 29.7894 14.4232 29.5494 14.4069 29.3194C14.3924 29.1164 14.3286 28.9199 14.2208 28.7469C14.0989 28.5514 13.8991 28.3999 13.4993 28.0966L4.21422 21.0574C2.80972 19.9924 2.10747 19.4601 2.0203 18.9819C1.94482 18.568 2.08262 18.1439 2.38695 17.8534C2.73855 17.5178 3.61962 17.4999 5.38175 17.4639L17.0313 17.2265C17.5328 17.2163 17.7835 17.2112 17.9972 17.1246C18.1859 17.0481 18.3531 16.9266 18.4842 16.7708C18.6326 16.5943 18.715 16.3574 18.8797 15.8836L22.7053 4.87763Z" stroke="black" stroke-width="3" fill="black" stroke-linecap="round" stroke-linejoin="round"/>
</svg>
