<svg viewBox="0 0 72 44" fill="none" xmlns="http://www.w3.org/2000/svg" className="svg-icon">
<path d="M4.095 0C1.85063 0 0 1.52829 0 3.38176V34.4865C0 36.4607 1.92938 38.0541 4.32 38.0541H10.215C10.9013 41.4265 14.4506 44 18.72 44C22.9894 44 26.5387 41.4265 27.225 38.0541H40.545C41.6081 38.0541 42.5587 37.6824 43.29 37.125C44.0381 37.6685 44.9944 38.0448 46.08 38.0541H47.655C48.3412 41.4265 51.8906 44 56.16 44C60.9131 44 64.8 40.7901 64.8 36.8649C64.8 32.9396 60.9131 29.7297 56.16 29.7297C51.8906 29.7297 48.3412 32.3032 47.655 35.6757H46.08C45.81 35.6757 45.3994 35.5224 45.09 35.2669C44.7806 35.0114 44.64 34.7048 44.64 34.4865V11.8919C44.64 11.4459 45.54 10.7027 46.08 10.7027H57.6C58.7306 10.7027 60.3225 11.7014 61.425 12.7838C61.4362 12.7977 61.4588 12.807 61.47 12.8209L61.695 13.0811H54.72C52.425 13.0811 50.4 14.614 50.4 16.6486V21.4054C50.4 22.3948 50.94 23.2635 51.705 23.8953C52.47 24.527 53.5219 24.973 54.72 24.973H69.12V34.4865C69.12 34.9324 68.22 35.6757 67.68 35.6757H64.8V38.0541H67.68C70.0706 38.0541 72 36.4607 72 34.4865V23.0405C72 20.3184 69.705 17.9122 69.705 17.9122H69.66L63.72 11.3716V11.3345L63.675 11.2973C62.3475 9.9734 60.3562 8.32432 57.6 8.32432H46.08C45.5681 8.32432 45.0956 8.41258 44.64 8.5473V3.45608C44.64 1.63049 42.8962 0 40.59 0H4.095ZM4.095 2.37838H40.59C41.2087 2.37838 41.76 2.87078 41.76 3.45608V34.6723C41.76 35.2297 41.2256 35.6757 40.545 35.6757H27.225C26.5387 32.3032 22.9894 29.7297 18.72 29.7297C14.4506 29.7297 10.9013 32.3032 10.215 35.6757H4.32C3.78 35.6757 2.88 34.9278 2.88 34.4865V3.38176C2.88 2.82432 3.40875 2.37838 4.095 2.37838ZM54.72 15.4595H63.855L67.365 19.3243C67.365 19.3243 68.67 21.1685 68.94 22.5946H54.72C54.4781 22.5946 54.09 22.4459 53.775 22.1858C53.46 21.9257 53.28 21.6052 53.28 21.4054V16.6486C53.28 16.0494 54.135 15.4595 54.72 15.4595ZM18.72 32.1081C21.9206 32.1081 24.48 34.2217 24.48 36.8649C24.48 39.508 21.9206 41.6216 18.72 41.6216C15.5194 41.6216 12.96 39.508 12.96 36.8649C12.96 34.2217 15.5194 32.1081 18.72 32.1081ZM56.16 32.1081C59.3606 32.1081 61.92 34.2217 61.92 36.8649C61.92 39.508 59.3606 41.6216 56.16 41.6216C52.9594 41.6216 50.4 39.508 50.4 36.8649C50.4 34.2217 52.9594 32.1081 56.16 32.1081Z" fill="black"/>
</svg>
